<?xml version="1.0" encoding="UTF-8" standalone="no"?>
<!DOCTYPE svg PUBLIC "-//W3C//DTD SVG 1.1//EN" "http://www.w3.org/Graphics/SVG/1.1/DTD/svg11.dtd">
<svg version="1.1" xmlns="http://www.w3.org/2000/svg" xmlns:xlink="http://www.w3.org/1999/xlink" preserveAspectRatio="xMidYMid meet" viewBox="0 0 1000 500" width="100" height="50">
  <defs>
    <path
      d="M64.39 223.25L65.38 223.35L66.36 223.5L67.35 223.69L68.33 223.92L69.32 224.21L70.3 224.53L71.27 224.91L110.16 240.98L110.78 241.25L111.38 241.53L111.97 241.83L112.55 242.15L113.12 242.49L113.68 242.84L114.22 243.21L114.75 243.6L115.27 243.99L115.78 244.41L116.27 244.84L116.76 245.28L117.23 245.74L117.68 246.21L118.13 246.69L118.56 247.19L118.98 247.69L119.38 248.21L119.77 248.74L120.15 249.29L120.51 249.84L120.86 250.4L121.19 250.97L121.51 251.56L121.81 252.15L122.1 252.75L122.38 253.36L122.64 253.97L122.89 254.6L123.12 255.23L123.33 255.87L123.53 256.51L123.71 257.16L123.88 257.82L124.03 258.48L124.17 259.15L124.29 259.82L124.39 260.5L124.48 261.18L124.55 261.86L126.1 261.87L127.73 261.88L129.43 261.89L131.19 261.9L133.02 261.93L134.92 261.98L136.88 262.04L138.9 262.13L140.99 262.26L143.14 262.41L145.35 262.61L147.63 262.86L149.96 263.15L152.35 263.5L154.8 263.91L157.31 264.38L159.87 264.93L162.49 265.54L165.17 266.24L167.9 267.02L170.68 267.89L173.51 268.86L176.4 269.92L179.34 271.09L182.32 272.36L185.36 273.75L188.44 275.25L191.57 276.88L194.75 278.64L197.97 280.53L201.24 282.55L204.55 284.72L207.9 287.03L211.3 289.5L214.73 292.12L218.21 294.91L221.73 297.86L225.28 300.98L228.88 304.28L232.51 307.76L232.89 308.13L233.28 308.5L233.68 308.87L234.1 309.26L234.53 309.64L234.98 310.03L235.43 310.43L235.89 310.83L236.37 311.22L236.85 311.63L237.34 312.03L237.84 312.44L238.34 312.84L238.85 313.25L239.37 313.65L239.89 314.06L240.41 314.46L240.94 314.86L241.48 315.26L242.01 315.65L242.55 316.05L243.08 316.44L243.62 316.82L244.16 317.2L244.7 317.58L245.23 317.94L245.76 318.31L246.29 318.66L246.82 319.01L247.34 319.35L247.86 319.69L248.37 320.01L248.88 320.33L249.38 320.63L249.87 320.93L250.36 321.22L250.83 321.49L251.3 321.75L251.76 322L252.2 322.24L339.22 367.63L340.07 367.96L340.9 368.32L341.71 368.72L342.5 369.16L343.26 369.64L344.01 370.15L344.74 370.69L345.44 371.27L346.12 371.88L346.78 372.52L347.42 373.2L348.03 373.9L348.61 374.62L349.17 375.38L349.71 376.15L350.22 376.96L350.7 377.78L351.15 378.63L351.58 379.5L351.97 380.39L352.34 381.29L352.68 382.22L352.99 383.15L353.27 384.11L353.51 385.08L353.73 386.06L353.91 387.05L354.05 388.05L354.17 389.07L354.25 390.09L354.3 391.11L354.31 392.15L354.28 393.19L354.22 394.23L354.12 395.27L353.98 396.32L353.81 397.37L353.6 398.41L353.35 399.46L353.05 400.5L352.73 401.52L352.36 402.53L351.97 403.5L351.54 404.46L351.08 405.38L350.6 406.28L350.08 407.15L349.54 408L348.97 408.82L348.38 409.61L347.76 410.37L347.12 411.1L346.46 411.8L345.77 412.47L345.07 413.11L344.35 413.72L343.61 414.29L342.85 414.84L342.08 415.35L341.29 415.83L340.49 416.27L339.68 416.68L338.85 417.06L338.02 417.4L337.18 417.71L336.32 417.97L335.46 418.21L334.6 418.4L333.73 418.56L332.85 418.68L331.97 418.76L331.09 418.8L330.21 418.8L329.33 418.76L328.46 418.69L327.58 418.57L326.71 418.4L325.84 418.2L324.97 417.95L324.12 417.66L221.38 378.94L221.12 378.84L220.87 378.76L220.61 378.69L220.35 378.64L220.1 378.59L219.84 378.56L219.59 378.55L219.33 378.54L219.08 378.55L218.83 378.56L218.58 378.59L218.33 378.63L218.09 378.68L217.85 378.75L217.61 378.82L217.37 378.9L217.14 379L216.91 379.1L216.68 379.21L216.46 379.34L216.25 379.47L216.04 379.62L215.83 379.77L215.63 379.93L215.43 380.1L215.25 380.28L215.06 380.47L214.89 380.66L214.72 380.87L214.55 381.08L214.4 381.3L214.25 381.53L214.11 381.76L213.98 382.01L213.85 382.26L213.74 382.51L213.63 382.77L213.53 383.04L213.44 383.32L213.36 383.6L213.3 383.86L213.25 384.13L213.21 384.39L213.18 384.65L213.16 384.91L213.14 385.17L213.13 385.43L213.14 385.69L213.15 385.95L213.17 386.21L213.19 386.46L213.23 386.71L213.27 386.96L213.32 387.21L213.38 387.46L213.45 387.7L213.52 387.94L213.6 388.17L213.69 388.4L213.79 388.63L213.89 388.85L214.01 389.07L214.12 389.29L214.25 389.5L214.38 389.7L214.52 389.9L214.66 390.09L214.82 390.28L214.97 390.46L215.14 390.64L215.31 390.81L215.49 390.97L215.67 391.12L215.86 391.27L216.05 391.41L216.25 391.54L216.46 391.67L216.67 391.79L216.89 391.89L217.11 391.99L221.01 393.72L221.14 393.78L221.5 393.95L222.1 394.24L222.93 394.63L223.98 395.12L225.23 395.71L226.69 396.39L228.35 397.16L230.19 398.01L232.21 398.93L234.41 399.93L236.77 400.99L239.28 402.11L241.94 403.29L244.75 404.52L247.68 405.8L250.74 407.12L253.92 408.47L257.21 409.86L260.6 411.27L264.08 412.71L267.64 414.16L271.29 415.63L275 417.1L278.78 418.57L282.61 420.05L286.49 421.51L290.41 422.96L294.35 424.39L298.32 425.8L302.31 427.19L306.3 428.54L310.3 429.85L314.28 431.12L318.25 432.35L322.19 433.52L326.11 434.63L329.98 435.68L333.8 436.67L337.57 437.58L338.25 437.74L338.93 437.88L339.6 438.02L340.27 438.16L340.95 438.28L341.62 438.4L342.3 438.52L342.97 438.62L343.64 438.72L344.31 438.81L344.99 438.9L345.66 438.98L346.33 439.05L347 439.11L347.68 439.17L348.35 439.22L349.02 439.26L349.69 439.3L350.37 439.33L351.04 439.35L351.71 439.36L352.38 439.37L353.06 439.37L353.73 439.36L354.41 439.35L355.08 439.32L355.76 439.29L356.43 439.26L357.11 439.21L357.79 439.16L358.46 439.1L359.14 439.03L359.82 438.96L360.5 438.87L361.18 438.78L361.86 438.69L362.55 438.58L363.23 438.47L363.91 438.35L364.6 438.22L364.71 438.2L364.82 438.18L364.93 438.16L365.04 438.14L365.15 438.12L365.27 438.09L365.39 438.07L365.5 438.05L365.62 438.03L365.74 438L365.86 437.98L365.98 437.96L366.11 437.93L366.23 437.91L366.35 437.88L366.48 437.86L366.6 437.84L366.73 437.81L366.85 437.79L367.1 437.74L367.22 437.71L367.35 437.69L367.47 437.66L367.6 437.64L367.72 437.62L367.84 437.59L367.97 437.57L368.09 437.55L368.21 437.52L368.33 437.5L368.45 437.48L368.56 437.45L368.68 437.43L368.8 437.41L368.91 437.39L369.02 437.37L369.13 437.35L369.24 437.33L369.35 437.31L370.91 436.96L372.51 436.61L374.14 436.27L375.8 435.93L377.49 435.6L379.21 435.27L380.95 434.94L382.71 434.62L384.5 434.31L386.3 434L388.13 433.69L389.97 433.39L391.82 433.1L393.69 432.81L395.57 432.52L397.46 432.24L399.36 431.97L401.26 431.7L403.17 431.44L405.08 431.19L406.99 430.94L408.9 430.7L410.81 430.46L412.72 430.23L414.61 430.01L416.51 429.79L418.39 429.58L420.26 429.38L422.11 429.19L423.96 429L425.78 428.82L427.59 428.65L429.38 428.49L431.15 428.33L432.89 428.18L434.61 428.04L436.3 427.91L437.97 427.79L439.6 427.67L441.2 427.57L441.67 427.53L442.2 427.49L442.79 427.44L443.42 427.39L444.11 427.33L444.84 427.28L445.61 427.22L446.43 427.16L447.28 427.1L448.17 427.04L449.09 426.99L450.04 426.93L451.02 426.89L452.02 426.84L453.05 426.8L454.09 426.77L455.14 426.74L456.21 426.72L457.29 426.71L458.38 426.71L459.47 426.72L460.56 426.74L461.65 426.78L462.74 426.82L463.82 426.88L464.89 426.96L465.95 427.04L466.99 427.15L468.01 427.27L469.02 427.41L470 427.57L470.95 427.74L471.87 427.94L472.76 428.16L473.62 428.4L474.44 428.66L475.22 428.94L475.95 429.25L476.64 429.59L477.28 429.95L478.12 430.49L478.92 431.05L479.69 431.64L480.41 432.24L481.1 432.86L481.74 433.51L482.35 434.17L482.92 434.85L483.46 435.54L483.96 436.25L484.42 436.97L484.85 437.71L485.25 438.46L485.61 439.22L485.94 439.99L486.24 440.77L486.5 441.55L486.74 442.35L486.94 443.15L487.11 443.96L487.26 444.78L487.37 445.59L487.46 446.41L487.52 447.24L487.55 448.06L487.55 448.88L487.53 449.71L487.48 450.53L487.41 451.35L487.32 452.16L487.2 452.98L487.05 453.78L486.89 454.58L486.7 455.37L486.49 456.16L486.26 456.94L486.01 457.7L485.74 458.46L485.46 459.2L485.15 459.93L484.88 460.52L484.61 461.1L484.31 461.67L484.01 462.23L483.69 462.78L483.36 463.31L483.01 463.83L482.66 464.35L482.29 464.85L481.91 465.34L481.51 465.81L481.11 466.28L480.7 466.73L480.27 467.17L479.84 467.6L479.39 468.01L478.94 468.41L478.48 468.8L478 469.18L477.52 469.54L477.03 469.9L476.54 470.23L476.03 470.56L475.52 470.87L475 471.17L474.47 471.45L473.94 471.73L473.4 471.98L472.86 472.23L472.31 472.46L471.75 472.68L471.19 472.88L470.63 473.07L470.06 473.24L469.48 473.4L468.9 473.54L468.32 473.68L467.74 473.79L467.15 473.89L466.56 473.98L306.98 495.87L301.1 496.33L299.59 496.45L298.08 496.53L296.59 496.59L295.1 496.61L293.61 496.61L292.13 496.58L290.66 496.52L289.2 496.43L287.74 496.32L286.29 496.17L284.84 496L283.4 495.81L281.96 495.58L280.54 495.33L279.11 495.06L277.69 494.76L276.28 494.43L274.87 494.07L273.47 493.69L272.07 493.29L270.68 492.86L269.29 492.41L267.9 491.93L266.53 491.43L265.15 490.9L263.78 490.35L262.41 489.78L261.05 489.18L259.7 488.56L258.34 487.92L256.99 487.25L255.65 486.56L254.3 485.85L252.96 485.12L251.63 484.37L250.3 483.59L248.97 482.8L247.64 481.98L246.32 481.14L245 480.29L82.68 388.43L82.23 388.89L81.77 389.34L81.3 389.78L80.81 390.2L80.32 390.61L79.82 391L79.31 391.37L78.79 391.73L78.27 392.08L77.73 392.4L77.19 392.71L76.64 393.01L76.09 393.28L75.52 393.54L74.96 393.79L74.38 394.01L73.8 394.22L73.22 394.41L72.63 394.58L72.03 394.74L71.43 394.87L70.83 394.99L70.22 395.09L69.62 395.17L69 395.23L68.39 395.27L67.77 395.29L67.15 395.3L66.53 395.28L65.91 395.25L65.29 395.19L64.67 395.12L64.05 395.02L63.42 394.9L62.8 394.76L62.18 394.61L61.56 394.43L60.94 394.23L60.33 394.01L59.71 393.76L20.82 377.69L19.86 377.27L18.93 376.81L18.01 376.32L17.13 375.78L16.27 375.22L15.43 374.61L14.63 373.98L13.85 373.31L13.09 372.61L12.37 371.88L11.67 371.12L11.01 370.33L10.37 369.52L9.76 368.68L9.19 367.82L8.64 366.93L8.13 366.02L7.65 365.1L7.2 364.15L6.78 363.18L6.4 362.2L6.05 361.2L5.73 360.18L5.45 359.16L5.2 358.11L4.99 357.06L4.82 356L4.68 354.93L4.58 353.85L4.51 352.76L4.49 351.67L4.5 350.57L4.55 349.47L4.64 348.37L4.77 347.26L4.94 346.16L5.15 345.06L5.4 343.96L5.7 342.86L6.03 341.77L39.19 241.47L39.56 240.39L39.97 239.34L40.41 238.32L40.89 237.33L41.4 236.37L41.94 235.43L42.5 234.53L43.1 233.66L43.73 232.81L44.38 232L45.06 231.23L45.76 230.48L46.49 229.77L47.24 229.09L48.01 228.44L48.8 227.83L49.61 227.26L50.44 226.72L51.28 226.21L52.15 225.75L53.02 225.32L53.92 224.92L54.82 224.57L55.74 224.26L56.67 223.98L57.61 223.74L58.56 223.55L59.52 223.39L60.48 223.28L61.45 223.21L62.43 223.18L63.41 223.19L64.39 223.25ZM46.96 331.73L45.79 332.04L44.65 332.46L43.55 332.99L42.49 333.62L41.47 334.36L40.52 335.19L39.62 336.12L38.8 337.14L38.05 338.25L37.38 339.45L36.8 340.73L36.32 342.07L35.96 343.43L35.72 344.79L35.58 346.16L35.55 347.53L35.63 348.88L35.8 350.21L36.08 351.52L36.46 352.8L36.93 354.04L37.5 355.22L38.15 356.36L38.9 357.43L39.73 358.43L40.64 359.35L41.63 360.19L42.7 360.94L43.85 361.59L45.05 362.12L46.26 362.52L47.48 362.8L48.7 362.94L49.92 362.97L51.13 362.88L52.33 362.68L53.5 362.36L54.64 361.93L55.75 361.4L56.81 360.76L57.82 360.03L58.78 359.2L59.67 358.27L60.49 357.25L61.24 356.15L61.91 354.96L62.48 353.69L62.95 352.36L63.31 351L63.56 349.64L63.7 348.27L63.73 346.9L63.65 345.55L63.47 344.21L63.19 342.91L62.82 341.63L62.35 340.39L61.78 339.21L61.12 338.07L60.38 337L59.55 336L58.64 335.08L57.65 334.24L56.57 333.49L55.43 332.84L54.23 332.31L53.02 331.9L51.8 331.63L50.58 331.47L49.36 331.44L48.15 331.53L46.96 331.73Z"
      id="aeT0RmbE0"></path>
    <path
      d="M373.9 408.32C373.06 411.21 371.96 413.96 370.71 416.52C372.39 416.15 374.21 415.71 375.89 415.34C392.83 411.37 425.71 408.09 443.95 406.87C449.48 406.47 455.24 406.31 461.11 406.7C456.66 398.44 449.82 394.75 441.44 394.32C424.74 393.62 393.01 395.15 376.44 396.84C376.32 397.15 376.14 397.31 375.97 397.46C375.61 401.08 375.02 404.72 373.9 408.32Z"
      id="f2vHzI1jRy"></path>
    <path
      d="M368.77 363.9C371.44 368.44 373.41 373.35 374.67 378.65C375.38 378.52 376.13 378.29 376.93 378.2C377.72 378.11 384.07 377.38 384.86 377.29C396.53 376.07 419.44 377.94 431.77 377.79C427.24 369.73 420.49 366.08 412.26 365.85C402 365.46 379.56 362.97 368.77 363.9Z"
      id="avNREPbPZ"></path>
    <path
      d="M939.52 223.28L940.48 223.39L941.44 223.55L942.39 223.74L943.33 223.98L944.26 224.26L945.18 224.57L946.08 224.92L946.98 225.32L947.85 225.75L948.72 226.21L949.56 226.72L950.39 227.26L951.2 227.83L951.99 228.44L952.76 229.09L953.51 229.77L954.24 230.48L954.94 231.23L955.62 232L956.27 232.81L956.9 233.66L957.5 234.53L958.06 235.43L958.6 236.37L959.11 237.33L959.59 238.32L960.03 239.34L960.44 240.39L960.81 241.47L993.97 341.77L994.3 342.86L994.6 343.96L994.85 345.06L995.06 346.16L995.23 347.26L995.36 348.37L995.45 349.47L995.5 350.57L995.51 351.67L995.49 352.76L995.42 353.85L995.32 354.93L995.18 356L995.01 357.06L994.8 358.11L994.55 359.16L994.27 360.18L993.95 361.2L993.6 362.2L993.22 363.18L992.8 364.15L992.35 365.1L991.87 366.02L991.36 366.93L990.81 367.82L990.24 368.68L989.63 369.52L988.99 370.33L988.33 371.12L987.63 371.88L986.91 372.61L986.15 373.31L985.37 373.98L984.57 374.61L983.73 375.22L982.87 375.78L981.99 376.32L981.07 376.81L980.14 377.27L979.18 377.69L940.29 393.76L939.67 394.01L939.06 394.23L938.44 394.43L937.82 394.61L937.2 394.76L936.58 394.9L935.95 395.02L935.33 395.12L934.71 395.19L934.09 395.25L933.47 395.28L932.85 395.3L932.23 395.29L931.61 395.27L931 395.23L930.38 395.17L929.78 395.09L929.17 394.99L928.57 394.87L927.97 394.74L927.37 394.58L926.78 394.41L926.2 394.22L925.62 394.01L925.04 393.79L924.48 393.54L923.91 393.28L923.36 393.01L922.81 392.71L922.27 392.4L921.73 392.08L921.21 391.73L920.69 391.37L920.18 391L919.68 390.61L919.19 390.2L918.7 389.78L918.23 389.34L917.77 388.89L917.32 388.43L755 480.29L753.68 481.14L752.36 481.98L751.03 482.8L749.7 483.59L748.37 484.37L747.04 485.12L745.7 485.85L744.35 486.56L743.01 487.25L741.66 487.92L740.3 488.56L738.95 489.18L737.59 489.78L736.22 490.35L734.85 490.9L733.47 491.43L732.1 491.93L730.71 492.41L729.32 492.86L727.93 493.29L726.53 493.69L725.13 494.07L723.72 494.43L722.31 494.76L720.89 495.06L719.46 495.33L718.04 495.58L716.6 495.81L715.16 496L713.71 496.17L712.26 496.32L710.8 496.43L709.34 496.52L707.87 496.58L706.39 496.61L704.9 496.61L703.41 496.59L701.92 496.53L700.41 496.45L698.9 496.33L693.02 495.87L533.44 473.98L532.85 473.89L532.26 473.79L531.68 473.68L531.1 473.54L530.52 473.4L529.94 473.24L529.37 473.07L528.81 472.88L528.25 472.68L527.69 472.46L527.14 472.23L526.6 471.98L526.06 471.73L525.53 471.45L525 471.17L524.48 470.87L523.97 470.56L523.46 470.23L522.97 469.9L522.48 469.54L522 469.18L521.52 468.8L521.06 468.41L520.61 468.01L520.16 467.6L519.73 467.17L519.3 466.73L518.89 466.28L518.49 465.81L518.09 465.34L517.71 464.85L517.34 464.35L516.99 463.83L516.64 463.31L516.31 462.78L515.99 462.23L515.69 461.67L515.39 461.1L515.12 460.52L514.85 459.93L514.54 459.2L514.26 458.46L513.99 457.7L513.74 456.94L513.51 456.16L513.3 455.37L513.11 454.58L512.95 453.78L512.8 452.98L512.68 452.16L512.59 451.35L512.52 450.53L512.47 449.71L512.45 448.88L512.45 448.06L512.48 447.24L512.54 446.41L512.63 445.59L512.74 444.78L512.89 443.96L513.06 443.15L513.26 442.35L513.5 441.55L513.76 440.77L514.06 439.99L514.39 439.22L514.75 438.46L515.15 437.71L515.58 436.97L516.04 436.25L516.54 435.54L517.08 434.85L517.65 434.17L518.26 433.51L518.9 432.86L519.59 432.24L520.31 431.64L521.08 431.05L521.88 430.49L522.72 429.95L523.36 429.59L524.05 429.25L524.78 428.94L525.56 428.66L526.38 428.4L527.24 428.16L528.13 427.94L529.05 427.74L530 427.57L530.98 427.41L531.99 427.27L533.01 427.15L534.05 427.04L535.11 426.96L536.18 426.88L537.26 426.82L538.35 426.78L539.44 426.74L540.53 426.72L541.62 426.71L542.71 426.71L543.79 426.72L544.86 426.74L545.91 426.77L546.95 426.8L547.98 426.84L548.98 426.89L549.96 426.93L550.91 426.99L551.83 427.04L552.72 427.1L553.57 427.16L554.39 427.22L555.16 427.28L555.89 427.33L556.58 427.39L557.21 427.44L557.8 427.49L558.33 427.53L558.8 427.57L560.4 427.67L562.03 427.79L563.7 427.91L565.39 428.04L567.11 428.18L568.85 428.33L570.62 428.49L572.41 428.65L574.22 428.82L576.04 429L577.89 429.19L579.74 429.38L581.61 429.58L583.49 429.79L585.39 430.01L587.28 430.23L589.19 430.46L591.1 430.7L593.01 430.94L594.92 431.19L596.83 431.44L598.74 431.7L600.64 431.97L602.54 432.24L604.43 432.52L606.31 432.81L608.18 433.1L610.03 433.39L611.87 433.69L613.7 434L615.5 434.31L617.29 434.62L619.05 434.94L620.79 435.27L622.51 435.6L624.2 435.93L625.86 436.27L627.49 436.61L629.09 436.96L630.65 437.31L630.76 437.33L630.87 437.35L630.98 437.37L631.09 437.39L631.2 437.41L631.32 437.43L631.44 437.45L631.55 437.48L631.67 437.5L631.79 437.52L631.91 437.55L632.03 437.57L632.16 437.59L632.28 437.62L632.4 437.64L632.53 437.66L632.65 437.69L632.78 437.71L632.9 437.74L633.15 437.79L633.27 437.81L633.4 437.84L633.52 437.86L633.65 437.88L633.77 437.91L633.89 437.93L634.02 437.96L634.14 437.98L634.26 438L634.38 438.03L634.5 438.05L634.61 438.07L634.73 438.09L634.85 438.12L634.96 438.14L635.07 438.16L635.18 438.18L635.29 438.2L635.4 438.22L636.09 438.35L636.77 438.47L637.45 438.58L638.14 438.69L638.82 438.78L639.5 438.87L640.18 438.96L640.86 439.03L641.54 439.1L642.21 439.16L642.89 439.21L643.57 439.26L644.24 439.29L644.92 439.32L645.59 439.35L646.27 439.36L646.94 439.37L647.62 439.37L648.29 439.36L648.96 439.35L649.63 439.33L650.31 439.3L650.98 439.26L651.65 439.22L652.32 439.17L653 439.11L653.67 439.05L654.34 438.98L655.01 438.9L655.69 438.81L656.36 438.72L657.03 438.62L657.7 438.52L658.38 438.4L659.05 438.28L659.73 438.16L660.4 438.02L661.07 437.88L661.75 437.74L662.43 437.58L666.2 436.67L670.02 435.68L673.89 434.63L677.81 433.52L681.75 432.35L685.72 431.12L689.7 429.85L693.7 428.54L697.69 427.19L701.68 425.8L705.65 424.39L709.59 422.96L713.51 421.51L717.39 420.05L721.22 418.57L725 417.1L728.71 415.63L732.36 414.16L735.92 412.71L739.4 411.27L742.79 409.86L746.08 408.47L749.26 407.12L752.32 405.8L755.25 404.52L758.06 403.29L760.72 402.11L763.23 400.99L765.59 399.93L767.79 398.93L769.81 398.01L771.65 397.16L773.31 396.39L774.77 395.71L776.02 395.12L777.07 394.63L777.9 394.24L778.5 393.95L778.86 393.78L778.99 393.72L782.89 391.99L783.11 391.89L783.33 391.79L783.54 391.67L783.75 391.54L783.95 391.41L784.14 391.27L784.33 391.12L784.51 390.97L784.69 390.81L784.86 390.64L785.03 390.46L785.18 390.28L785.34 390.09L785.48 389.9L785.62 389.7L785.75 389.5L785.88 389.29L785.99 389.07L786.11 388.85L786.21 388.63L786.31 388.4L786.4 388.17L786.48 387.94L786.55 387.7L786.62 387.46L786.68 387.21L786.73 386.96L786.77 386.71L786.81 386.46L786.83 386.21L786.85 385.95L786.86 385.69L786.87 385.43L786.86 385.17L786.84 384.91L786.82 384.65L786.79 384.39L786.75 384.13L786.7 383.86L786.64 383.6L786.56 383.32L786.47 383.04L786.37 382.77L786.26 382.51L786.15 382.26L786.02 382.01L785.89 381.76L785.75 381.53L785.6 381.3L785.45 381.08L785.28 380.87L785.11 380.66L784.94 380.47L784.75 380.28L784.57 380.1L784.37 379.93L784.17 379.77L783.96 379.62L783.75 379.47L783.54 379.34L783.32 379.21L783.09 379.1L782.86 379L782.63 378.9L782.39 378.82L782.15 378.75L781.91 378.68L781.67 378.63L781.42 378.59L781.17 378.56L780.92 378.55L780.67 378.54L780.41 378.55L780.16 378.56L779.9 378.59L779.65 378.64L779.39 378.69L779.13 378.76L778.88 378.84L778.62 378.94L675.88 417.66L675.03 417.95L674.16 418.2L673.29 418.4L672.42 418.57L671.54 418.69L670.67 418.76L669.79 418.8L668.91 418.8L668.03 418.76L667.15 418.68L666.27 418.56L665.4 418.4L664.54 418.21L663.68 417.97L662.82 417.71L661.98 417.4L661.15 417.06L660.32 416.68L659.51 416.27L658.71 415.83L657.92 415.35L657.15 414.84L656.39 414.29L655.65 413.72L654.93 413.11L654.23 412.47L653.54 411.8L652.88 411.1L652.24 410.37L651.62 409.61L651.03 408.82L650.46 408L649.92 407.15L649.4 406.28L648.92 405.38L648.46 404.46L648.03 403.5L647.64 402.53L647.27 401.52L646.95 400.5L646.65 399.46L646.4 398.41L646.19 397.37L646.02 396.32L645.88 395.27L645.78 394.23L645.72 393.19L645.69 392.15L645.7 391.11L645.75 390.09L645.83 389.07L645.95 388.05L646.09 387.05L646.27 386.06L646.49 385.08L646.73 384.11L647.01 383.15L647.32 382.22L647.66 381.29L648.03 380.39L648.42 379.5L648.85 378.63L649.3 377.78L649.78 376.96L650.29 376.15L650.83 375.38L651.39 374.62L651.97 373.9L652.58 373.2L653.22 372.52L653.88 371.88L654.56 371.27L655.26 370.69L655.99 370.15L656.74 369.64L657.5 369.16L658.29 368.72L659.1 368.32L659.93 367.96L660.78 367.63L747.8 322.24L748.24 322L748.7 321.75L749.17 321.49L749.64 321.22L750.13 320.93L750.62 320.63L751.12 320.33L751.63 320.01L752.14 319.69L752.66 319.35L753.18 319.01L753.71 318.66L754.24 318.31L754.77 317.94L755.3 317.58L755.84 317.2L756.38 316.82L756.92 316.44L757.45 316.05L757.99 315.65L758.52 315.26L759.06 314.86L759.59 314.46L760.11 314.06L760.63 313.65L761.15 313.25L761.66 312.84L762.16 312.44L762.66 312.03L763.15 311.63L763.63 311.22L764.11 310.83L764.57 310.43L765.02 310.03L765.47 309.64L765.9 309.26L766.32 308.87L766.72 308.5L767.11 308.13L767.49 307.76L771.12 304.28L774.72 300.98L778.27 297.86L781.79 294.91L785.27 292.12L788.7 289.5L792.1 287.03L795.45 284.72L798.76 282.55L802.03 280.53L805.25 278.64L808.43 276.88L811.56 275.25L814.64 273.75L817.68 272.36L820.66 271.09L823.6 269.92L826.49 268.86L829.32 267.89L832.1 267.02L834.83 266.24L837.51 265.54L840.13 264.93L842.69 264.38L845.2 263.91L847.65 263.5L850.04 263.15L852.37 262.86L854.65 262.61L856.86 262.41L859.01 262.26L861.1 262.13L863.12 262.04L865.08 261.98L866.98 261.93L868.81 261.9L870.57 261.89L872.27 261.88L873.9 261.87L875.45 261.86L875.52 261.18L875.61 260.5L875.71 259.82L875.83 259.15L875.97 258.48L876.12 257.82L876.29 257.16L876.47 256.51L876.67 255.87L876.88 255.23L877.11 254.6L877.36 253.97L877.62 253.36L877.9 252.75L878.19 252.15L878.49 251.56L878.81 250.97L879.14 250.4L879.49 249.84L879.85 249.29L880.23 248.74L880.62 248.21L881.02 247.69L881.44 247.19L881.87 246.69L882.32 246.21L882.77 245.74L883.24 245.28L883.73 244.84L884.22 244.41L884.73 243.99L885.25 243.6L885.78 243.21L886.32 242.84L886.88 242.49L887.45 242.15L888.03 241.83L888.62 241.53L889.22 241.25L889.84 240.98L928.73 224.91L929.7 224.53L930.68 224.21L931.67 223.92L932.65 223.69L933.64 223.5L934.62 223.35L935.61 223.25L936.59 223.19L937.57 223.18L938.55 223.21L939.52 223.28ZM948.2 331.63L946.98 331.9L945.77 332.31L944.57 332.84L943.43 333.49L942.35 334.24L941.36 335.08L940.45 336L939.62 337L938.88 338.07L938.22 339.21L937.65 340.39L937.18 341.63L936.81 342.91L936.53 344.21L936.35 345.55L936.27 346.9L936.3 348.27L936.44 349.64L936.69 351L937.05 352.36L937.52 353.69L938.09 354.96L938.76 356.15L939.51 357.25L940.33 358.27L941.22 359.2L942.18 360.03L943.19 360.76L944.25 361.4L945.36 361.93L946.5 362.36L947.67 362.68L948.87 362.88L950.08 362.97L951.3 362.94L952.52 362.8L953.74 362.52L954.95 362.12L956.15 361.59L957.3 360.94L958.37 360.19L959.36 359.35L960.27 358.43L961.1 357.43L961.85 356.36L962.5 355.22L963.07 354.04L963.54 352.8L963.92 351.52L964.2 350.21L964.37 348.88L964.45 347.53L964.42 346.16L964.28 344.79L964.04 343.43L963.68 342.07L963.2 340.73L962.62 339.45L961.95 338.25L961.2 337.14L960.38 336.12L959.48 335.19L958.53 334.36L957.51 333.62L956.45 332.99L955.35 332.46L954.21 332.04L953.04 331.73L951.85 331.53L950.64 331.44L949.42 331.47L948.2 331.63Z"
      id="b571cVPMot"></path>
    <path
      d="M626.1 408.32C626.94 411.21 628.04 413.96 629.29 416.52C627.61 416.15 625.79 415.71 624.11 415.34C607.17 411.37 574.29 408.09 556.05 406.87C550.52 406.47 544.76 406.31 538.89 406.7C543.34 398.44 550.18 394.75 558.56 394.32C575.26 393.62 606.99 395.15 623.56 396.84C623.68 397.15 623.86 397.31 624.03 397.46C624.39 401.08 624.98 404.72 626.1 408.32Z"
      id="b34mcouix5"></path>
    <path
      d="M631.23 363.9C628.56 368.44 626.59 373.35 625.33 378.65C624.62 378.52 623.87 378.29 623.07 378.2C622.28 378.11 615.93 377.38 615.14 377.29C603.47 376.07 580.56 377.94 568.23 377.79C572.76 369.73 579.51 366.08 587.74 365.85C598 365.46 620.44 362.97 631.23 363.9Z"
      id="a1Mv3Bm1h3"></path>
    <path
      d="M689.43 9.67L689.77 9.71L690.11 9.76L690.44 9.82L690.76 9.9L691.08 10L691.4 10.1L691.71 10.22L692.01 10.35L692.31 10.5L692.6 10.65L692.88 10.82L693.16 11L693.43 11.19L693.69 11.39L693.95 11.6L694.2 11.82L694.43 12.05L694.66 12.3L694.89 12.55L695.1 12.81L695.3 13.07L695.5 13.35L695.68 13.64L695.86 13.93L696.02 14.23L696.17 14.54L696.32 14.85L696.45 15.17L696.57 15.5L696.68 15.83L696.78 16.17L696.86 16.52L696.93 16.87L696.99 17.22L697.04 17.58L697.07 17.95L697.09 18.32L697.1 18.69L697.1 39.95L697.78 40.19L698.44 40.44L699.1 40.72L699.76 41.01L700.4 41.31L701.04 41.64L701.66 41.98L702.28 42.34L702.89 42.71L703.49 43.11L704.08 43.51L704.66 43.93L705.22 44.37L705.78 44.82L706.33 45.28L706.87 45.76L707.39 46.26L707.91 46.76L708.41 47.29L708.9 47.82L709.38 48.37L709.84 48.92L710.3 49.5L710.74 50.08L711.16 50.67L711.57 51.28L711.97 51.9L712.36 52.53L712.73 53.17L713.09 53.82L713.43 54.48L713.76 55.15L714.07 55.83L714.36 56.52L714.64 57.21L714.91 57.92L715.16 58.64L715.39 59.36L715.6 60.09L715.8 60.83L718.66 61.02L721.5 61.22L724.34 61.45L727.17 61.69L729.98 61.96L732.79 62.24L735.58 62.54L738.36 62.86L741.13 63.2L743.89 63.55L746.63 63.93L749.35 64.32L752.07 64.73L754.76 65.16L757.44 65.61L760.1 66.07L762.75 66.56L765.38 67.06L767.99 67.57L770.58 68.11L773.15 68.66L775.7 69.23L778.23 69.81L780.74 70.42L783.23 71.04L785.7 71.67L788.14 72.32L790.56 72.99L792.96 73.68L795.33 74.38L797.68 75.1L800 75.83L802.3 76.58L804.57 77.34L806.81 78.12L809.03 78.92L811.21 79.73L813.37 80.55L815.5 81.4L817.6 82.25L817.92 82.39L818.23 82.55L818.53 82.72L818.83 82.89L819.11 83.08L819.39 83.29L819.65 83.5L819.91 83.72L820.16 83.95L820.4 84.19L820.63 84.44L820.85 84.7L821.06 84.96L821.25 85.24L821.44 85.52L821.62 85.81L821.79 86.1L821.95 86.4L822.09 86.71L822.23 87.02L822.35 87.34L822.47 87.67L822.57 88L822.66 88.33L822.74 88.66L822.8 89L822.86 89.35L822.9 89.69L822.93 90.04L822.95 90.39L822.95 90.74L822.94 91.1L822.92 91.45L822.89 91.81L822.84 92.16L822.78 92.52L822.71 92.87L822.62 93.22L822.52 93.57L822.4 93.92L822.3 94.2L822.19 94.46L822.07 94.72L821.95 94.97L821.82 95.22L821.69 95.46L821.55 95.7L821.4 95.93L821.25 96.15L821.09 96.37L820.93 96.59L820.76 96.79L820.59 96.99L820.41 97.18L820.23 97.37L820.04 97.55L819.85 97.73L819.66 97.89L819.46 98.05L819.25 98.21L819.05 98.36L818.84 98.5L818.62 98.63L818.41 98.76L818.19 98.87L817.96 98.99L817.74 99.09L817.51 99.19L817.27 99.28L817.04 99.36L816.8 99.44L816.56 99.5L816.32 99.56L816.08 99.62L815.83 99.66L815.59 99.7L815.34 99.72L815.09 99.75L814.84 99.76L814.59 99.76L814.49 99.75L814.35 99.73L814.17 99.69L813.95 99.63L813.7 99.56L813.41 99.47L813.09 99.37L812.74 99.26L812.37 99.14L811.96 99.01L811.53 98.86L811.07 98.71L810.6 98.54L810.1 98.37L809.58 98.19L809.05 98.01L808.5 97.82L807.94 97.62L807.36 97.42L806.78 97.21L806.18 97L805.58 96.79L804.98 96.58L804.37 96.36L803.76 96.14L803.15 95.93L802.54 95.72L801.94 95.5L801.34 95.29L800.75 95.08L800.17 94.88L799.59 94.68L799.03 94.49L798.49 94.3L797.96 94.12L797.44 93.94L796.95 93.78L796.47 93.62L796.02 93.47L795.59 93.34L837.59 187.1L837.64 187.18L837.69 187.28L837.73 187.4L837.78 187.53L837.83 187.67L837.88 187.82L837.92 187.99L837.97 188.16L838.01 188.35L838.06 188.54L838.1 188.74L838.15 188.95L838.19 189.17L838.23 189.39L838.27 189.61L838.31 189.84L838.35 190.07L838.39 190.3L838.43 190.53L838.46 190.77L838.49 191L838.53 191.23L838.56 191.46L838.59 191.68L838.61 191.9L838.64 192.12L838.66 192.33L838.69 192.53L838.71 192.73L838.72 192.91L838.74 193.09L838.75 193.26L838.76 193.41L838.77 193.55L838.78 193.69L838.78 193.8L838.79 193.9L838.79 193.99L838.78 194.06L838.78 194.11L838.57 196.53L838.28 198.92L837.91 201.28L837.46 203.61L836.93 205.91L836.33 208.16L835.65 210.39L834.9 212.57L834.07 214.71L833.17 216.81L832.21 218.86L831.18 220.87L830.08 222.83L828.92 224.74L827.7 226.61L826.41 228.41L825.07 230.17L823.67 231.87L822.21 233.51L820.7 235.09L819.14 236.61L817.53 238.07L815.86 239.47L814.15 240.8L812.39 242.06L810.59 243.25L808.75 244.37L806.86 245.42L804.94 246.39L802.97 247.29L800.97 248.11L798.94 248.86L796.87 249.52L794.77 250.09L792.64 250.59L790.48 251L788.29 251.32L786.08 251.55L783.85 251.69L781.59 251.73L779.3 251.68L777.04 251.54L774.79 251.3L772.58 250.97L770.39 250.55L768.23 250.04L766.1 249.45L764 248.77L761.94 248L759.91 247.16L757.92 246.23L755.97 245.23L754.07 244.15L752.2 242.99L750.38 241.77L748.61 240.47L746.88 239.1L745.2 237.67L743.58 236.17L742.01 234.6L740.49 232.98L739.03 231.29L737.62 229.55L736.28 227.74L735 225.89L733.78 223.98L732.63 222.01L731.54 220L730.52 217.94L729.57 215.84L728.7 213.68L727.89 211.49L727.16 209.26L726.51 206.98L725.94 204.67L725.45 202.32L725.03 199.94L724.71 197.53L724.46 195.09L724.31 192.61L724.31 192.6L724.31 192.57L724.32 192.52L724.33 192.47L724.34 192.39L724.36 192.31L724.37 192.22L724.39 192.12L724.41 192L724.43 191.88L724.46 191.75L724.48 191.62L724.51 191.47L724.53 191.33L724.56 191.17L724.59 191.02L724.62 190.86L724.65 190.69L724.68 190.53L724.71 190.37L724.74 190.2L724.77 190.04L724.8 189.88L724.83 189.72L724.86 189.56L724.89 189.41L724.92 189.26L724.95 189.12L724.97 188.98L725 188.85L725.02 188.73L725.04 188.62L725.06 188.51L725.08 188.42L725.1 188.34L725.11 188.27L725.13 188.21L725.14 188.16L725.14 188.13L725.15 188.12L770.61 86.53L769.31 86.25L768.01 85.97L766.7 85.7L765.39 85.43L764.07 85.16L762.74 84.9L761.41 84.65L760.08 84.4L758.74 84.15L757.4 83.91L756.05 83.67L754.69 83.44L753.34 83.21L751.97 82.99L750.61 82.77L749.23 82.55L747.86 82.34L746.48 82.14L745.09 81.94L743.71 81.74L742.31 81.55L740.92 81.37L739.52 81.19L738.11 81.01L736.71 80.84L735.29 80.67L733.88 80.51L732.46 80.36L731.04 80.21L729.62 80.06L728.19 79.92L726.76 79.78L725.32 79.65L723.89 79.52L722.45 79.4L721 79.29L719.56 79.18L718.11 79.07L716.66 78.97L715.21 78.88L714.98 79.56L714.74 80.23L714.49 80.89L714.22 81.55L713.94 82.19L713.64 82.83L713.34 83.46L713.01 84.08L712.68 84.69L712.34 85.29L711.98 85.88L711.61 86.46L711.22 87.03L710.83 87.6L710.42 88.15L710.01 88.69L709.58 89.22L709.14 89.74L708.69 90.24L708.23 90.74L707.75 91.22L707.27 91.69L706.78 92.16L706.28 92.6L705.77 93.04L705.24 93.46L704.71 93.87L704.17 94.27L703.63 94.65L703.07 95.02L702.5 95.38L701.93 95.72L701.34 96.05L700.75 96.36L700.16 96.66L699.55 96.95L698.94 97.22L698.32 97.48L697.69 97.72L697.05 97.94L697.05 277.6L732.77 277.6L732.96 277.6L733.15 277.61L733.34 277.62L733.53 277.63L733.72 277.65L733.91 277.68L734.1 277.7L734.29 277.74L734.47 277.77L734.66 277.82L734.84 277.86L735.02 277.91L735.21 277.97L735.38 278.02L735.56 278.09L735.74 278.15L735.91 278.22L736.09 278.3L736.26 278.38L736.43 278.46L736.6 278.55L736.76 278.64L736.93 278.74L737.09 278.84L737.25 278.94L737.41 279.05L737.56 279.16L737.71 279.27L737.86 279.39L738.01 279.52L738.16 279.65L738.3 279.78L738.44 279.91L738.58 280.05L738.72 280.2L738.85 280.34L738.98 280.49L739.1 280.65L739.23 280.81L739.35 280.97L767.44 319.31L767.56 319.44L767.67 319.57L767.78 319.7L767.89 319.83L767.99 319.96L768.09 320.1L768.19 320.24L768.29 320.38L768.39 320.53L768.48 320.67L768.57 320.82L768.66 320.97L768.74 321.12L768.82 321.27L768.9 321.43L768.98 321.59L769.05 321.74L769.12 321.9L769.19 322.07L769.26 322.23L769.32 322.4L769.38 322.56L769.44 322.73L769.49 322.9L769.54 323.07L769.59 323.25L769.63 323.42L769.67 323.6L769.71 323.77L769.75 323.95L769.78 324.13L769.81 324.31L769.83 324.49L769.86 324.68L769.87 324.86L769.89 325.04L769.9 325.23L769.91 325.42L769.92 325.6L769.92 325.79L769.91 326.17L769.89 326.54L769.86 326.91L769.81 327.27L769.75 327.63L769.67 327.98L769.59 328.32L769.49 328.67L769.38 329L769.26 329.33L769.13 329.65L768.98 329.97L768.83 330.27L768.66 330.57L768.49 330.87L768.3 331.15L768.1 331.43L767.9 331.7L767.69 331.95L767.46 332.2L767.23 332.44L766.99 332.67L766.74 332.89L766.49 333.11L766.22 333.3L765.95 333.49L765.68 333.67L765.39 333.84L765.1 333.99L764.8 334.13L764.5 334.27L764.19 334.38L763.88 334.49L763.56 334.58L763.24 334.66L762.91 334.72L762.58 334.77L762.24 334.81L761.9 334.83L761.56 334.84L615.93 334.84L615.68 334.84L615.45 334.83L615.21 334.81L614.97 334.78L614.74 334.75L614.51 334.71L614.27 334.66L614.05 334.61L613.82 334.55L613.6 334.48L613.37 334.41L613.15 334.33L612.94 334.24L612.72 334.15L612.51 334.05L612.3 333.94L612.1 333.83L611.89 333.71L611.69 333.59L611.5 333.46L611.3 333.32L611.12 333.18L610.93 333.03L610.75 332.87L610.57 332.72L610.39 332.55L610.22 332.38L610.06 332.2L609.89 332.02L609.73 331.84L609.58 331.64L609.43 331.45L609.29 331.25L609.15 331.04L609.01 330.83L608.88 330.61L608.75 330.39L608.63 330.17L608.52 329.94L608.41 329.7L608.3 329.47L608.2 329.23L608.11 328.99L608.03 328.75L607.95 328.51L607.88 328.27L607.82 328.02L607.76 327.77L607.71 327.53L607.66 327.28L607.62 327.03L607.59 326.78L607.57 326.53L607.55 326.28L607.54 326.03L607.53 325.77L607.53 325.52L607.54 325.27L607.56 325.02L607.58 324.77L607.6 324.53L607.64 324.28L607.68 324.03L607.73 323.79L607.78 323.54L607.84 323.3L607.9 323.06L607.98 322.82L608.06 322.59L608.14 322.35L608.23 322.12L608.33 321.89L608.44 321.66L608.55 321.44L608.66 321.22L608.79 321L608.92 320.79L609.05 320.58L609.2 320.37L609.35 320.17L637.99 281.13L638.11 280.98L638.24 280.82L638.37 280.68L638.5 280.53L638.64 280.39L638.77 280.25L638.91 280.11L639.06 279.98L639.2 279.85L639.35 279.72L639.5 279.6L639.65 279.48L639.81 279.37L639.96 279.25L640.12 279.15L640.28 279.04L640.44 278.94L640.61 278.84L640.77 278.75L640.94 278.66L641.11 278.58L641.28 278.5L641.46 278.42L641.63 278.34L641.81 278.28L641.98 278.21L642.16 278.15L642.34 278.09L642.52 278.04L642.7 277.99L642.89 277.95L643.07 277.91L643.25 277.87L643.44 277.84L643.63 277.82L643.81 277.8L644 277.78L644.19 277.77L644.38 277.76L644.57 277.76L680.33 277.76L680.33 98.05L679.7 97.82L679.08 97.58L678.46 97.33L677.85 97.06L677.25 96.77L676.65 96.47L676.06 96.16L675.49 95.83L674.91 95.49L674.35 95.13L673.8 94.76L673.25 94.38L672.72 93.98L672.19 93.57L671.67 93.15L671.16 92.71L670.66 92.27L670.17 91.81L669.69 91.34L669.23 90.85L668.77 90.36L668.32 89.85L667.88 89.33L667.46 88.81L667.04 88.27L666.64 87.72L666.24 87.16L665.86 86.59L665.5 86.01L665.14 85.42L664.79 84.82L664.46 84.21L664.14 83.6L663.84 82.97L663.54 82.33L663.26 81.69L662.99 81.04L662.74 80.38L662.5 79.71L662.28 79.04L660.82 79.13L659.36 79.23L657.9 79.33L656.45 79.43L655 79.55L653.56 79.67L652.12 79.79L650.68 79.92L649.24 80.05L647.81 80.19L646.38 80.33L644.96 80.48L643.53 80.64L642.12 80.8L640.7 80.96L639.29 81.13L637.89 81.31L636.48 81.49L635.08 81.67L633.69 81.86L632.3 82.06L630.91 82.26L629.53 82.46L628.16 82.67L626.78 82.89L625.41 83.11L624.05 83.33L622.69 83.56L621.34 83.8L619.99 84.04L618.64 84.28L617.3 84.53L615.97 84.79L614.64 85.04L613.32 85.31L612 85.58L610.68 85.85L609.37 86.13L608.07 86.41L606.77 86.7L651.79 187.21L651.84 187.29L651.88 187.39L651.93 187.5L651.98 187.63L652.03 187.77L652.08 187.93L652.12 188.09L652.17 188.27L652.21 188.45L652.26 188.64L652.3 188.84L652.35 189.05L652.39 189.26L652.43 189.48L652.47 189.7L652.51 189.93L652.55 190.16L652.59 190.39L652.63 190.62L652.66 190.85L652.69 191.09L652.73 191.32L652.76 191.54L652.79 191.77L652.81 191.99L652.84 192.2L652.86 192.41L652.88 192.62L652.9 192.81L652.92 193L652.94 193.17L652.95 193.34L652.96 193.5L652.97 193.64L652.98 193.78L652.98 193.9L652.99 194L652.99 194.09L652.98 194.16L652.98 194.22L652.77 196.64L652.48 199.03L652.11 201.39L651.66 203.72L651.13 206.01L650.53 208.27L649.85 210.49L649.09 212.67L648.27 214.82L647.37 216.91L646.41 218.97L645.38 220.98L644.28 222.94L643.12 224.85L641.9 226.71L640.61 228.52L639.27 230.28L637.87 231.98L636.41 233.62L634.9 235.2L633.34 236.72L631.73 238.18L630.06 239.58L628.35 240.9L626.59 242.17L624.79 243.36L622.95 244.48L621.06 245.53L619.14 246.5L617.17 247.4L615.17 248.22L613.14 248.96L611.07 249.62L608.97 250.2L606.84 250.7L604.68 251.1L602.49 251.42L600.28 251.65L598.05 251.79L595.79 251.84L593.5 251.79L591.24 251.65L588.99 251.41L586.78 251.08L584.59 250.66L582.43 250.15L580.3 249.55L578.2 248.87L576.14 248.11L574.11 247.26L572.12 246.34L570.17 245.34L568.27 244.26L566.4 243.1L564.58 241.87L562.81 240.58L561.08 239.21L559.4 237.78L557.78 236.28L556.21 234.71L554.69 233.08L553.23 231.4L551.82 229.65L550.48 227.85L549.2 225.99L547.98 224.08L546.83 222.12L545.74 220.11L544.72 218.05L543.77 215.94L542.89 213.79L542.09 211.6L541.36 209.36L540.71 207.09L540.14 204.78L539.64 202.43L539.23 200.05L538.91 197.64L538.66 195.19L538.51 192.72L538.51 192.71L538.51 192.68L538.52 192.63L538.53 192.57L538.54 192.5L538.56 192.42L538.57 192.33L538.59 192.22L538.61 192.11L538.63 191.99L538.66 191.86L538.68 191.72L538.71 191.58L538.73 191.43L538.76 191.28L538.79 191.12L538.82 190.96L538.85 190.8L538.88 190.64L538.91 190.47L538.94 190.31L538.97 190.14L539 189.98L539.03 189.82L539.06 189.67L539.09 189.51L539.12 189.37L539.15 189.22L539.17 189.09L539.2 188.96L539.22 188.84L539.24 188.72L539.26 188.62L539.28 188.53L539.3 188.44L539.31 188.37L539.33 188.32L539.34 188.27L539.34 188.24L539.35 188.22L581.84 93.23L581.41 93.37L580.95 93.52L580.48 93.68L579.98 93.85L579.46 94.03L578.93 94.21L578.38 94.4L577.82 94.6L577.24 94.8L576.66 95L576.06 95.21L575.46 95.42L574.86 95.63L574.25 95.85L573.64 96.06L573.03 96.28L572.42 96.49L571.81 96.7L571.21 96.92L570.62 97.12L570.04 97.33L569.46 97.53L568.9 97.73L568.35 97.92L567.82 98.1L567.3 98.28L566.81 98.45L566.33 98.61L565.88 98.76L565.45 98.91L565.04 99.04L564.67 99.16L564.32 99.27L564 99.37L563.72 99.45L563.47 99.52L563.25 99.58L563.08 99.62L562.94 99.65L562.85 99.65L562.6 99.65L562.34 99.64L562.09 99.62L561.85 99.59L561.6 99.55L561.35 99.51L561.11 99.46L560.87 99.4L560.63 99.33L560.39 99.26L560.15 99.17L559.92 99.08L559.69 98.99L559.46 98.88L559.24 98.77L559.01 98.65L558.79 98.53L558.58 98.39L558.37 98.25L558.16 98.11L557.96 97.96L557.76 97.8L557.56 97.63L557.37 97.46L557.18 97.28L557 97.09L556.82 96.9L556.65 96.7L556.48 96.5L556.32 96.29L556.17 96.07L556.02 95.85L555.87 95.62L555.73 95.39L555.6 95.15L555.47 94.9L555.35 94.65L555.24 94.4L555.13 94.14L555.03 93.87L554.92 93.52L554.81 93.17L554.73 92.81L554.65 92.46L554.59 92.1L554.55 91.75L554.51 91.39L554.49 91.04L554.48 90.68L554.49 90.33L554.5 89.98L554.53 89.63L554.58 89.28L554.63 88.94L554.7 88.6L554.78 88.26L554.87 87.92L554.97 87.59L555.08 87.27L555.2 86.95L555.34 86.64L555.49 86.33L555.64 86.02L555.81 85.73L555.99 85.44L556.18 85.16L556.38 84.88L556.59 84.62L556.81 84.36L557.04 84.11L557.27 83.87L557.52 83.64L557.78 83.42L558.05 83.21L558.32 83.02L558.61 82.83L558.9 82.65L559.2 82.49L559.51 82.34L559.83 82.2L561.92 81.34L564.05 80.49L566.2 79.66L568.38 78.85L570.6 78.05L572.84 77.27L575.1 76.5L577.4 75.75L579.72 75.02L582.07 74.3L584.44 73.6L586.84 72.91L589.26 72.25L591.71 71.59L594.18 70.96L596.67 70.34L599.19 69.74L601.72 69.15L604.28 68.58L606.85 68.03L609.45 67.5L612.07 66.98L614.7 66.48L617.35 66L620.02 65.54L622.71 65.09L625.41 64.67L628.13 64.26L630.87 63.87L633.62 63.49L636.38 63.14L639.15 62.8L641.94 62.48L644.75 62.18L647.56 61.9L650.38 61.64L653.22 61.39L656.06 61.17L658.92 60.96L661.78 60.78L661.98 60.04L662.19 59.31L662.42 58.6L662.67 57.88L662.93 57.18L663.21 56.49L663.51 55.8L663.82 55.13L664.14 54.46L664.48 53.8L664.83 53.16L665.2 52.52L665.58 51.9L665.98 51.28L666.39 50.68L666.81 50.09L667.24 49.51L667.69 48.94L668.15 48.38L668.63 47.84L669.11 47.31L669.61 46.79L670.12 46.29L670.64 45.79L671.17 45.32L671.71 44.85L672.27 44.41L672.83 43.97L673.41 43.55L673.99 43.15L674.58 42.76L675.19 42.39L675.8 42.03L676.42 41.69L677.05 41.37L677.69 41.06L678.34 40.77L679 40.49L679.66 40.24L680.33 40L680.33 18.69L680.34 18.31L680.36 17.94L680.39 17.57L680.44 17.21L680.5 16.85L680.58 16.5L680.66 16.15L680.76 15.81L680.87 15.48L680.99 15.15L681.13 14.83L681.27 14.51L681.42 14.21L681.59 13.91L681.77 13.61L681.95 13.33L682.15 13.05L682.35 12.78L682.57 12.53L682.79 12.28L683.03 12.04L683.27 11.8L683.52 11.58L683.77 11.37L684.04 11.17L684.31 10.99L684.59 10.81L684.87 10.64L685.17 10.49L685.47 10.34L685.77 10.21L686.08 10.1L686.4 9.99L686.72 9.9L687.05 9.82L687.38 9.76L687.71 9.71L688.05 9.67L688.39 9.65L688.74 9.64L689.09 9.65L689.43 9.67ZM633.19 316.8L744.24 316.8L728.81 295.7L648.62 295.7L633.19 316.8ZM742.72 202.7L743.17 204.19L743.67 205.66L744.22 207.1L744.81 208.52L745.44 209.91L746.12 211.27L746.84 212.6L747.6 213.9L748.4 215.17L749.24 216.41L750.12 217.61L751.03 218.78L751.98 219.91L752.97 221L753.99 222.06L755.04 223.08L756.13 224.06L757.25 224.99L758.39 225.89L759.57 226.74L760.78 227.55L762.01 228.32L763.27 229.04L764.55 229.71L765.86 230.33L767.19 230.91L768.55 231.43L769.92 231.9L771.32 232.33L772.74 232.7L774.17 233.01L775.62 233.27L777.09 233.47L778.58 233.62L780.08 233.71L781.59 233.74L783.11 233.71L784.61 233.62L786.09 233.47L787.56 233.27L789.01 233.01L790.45 232.7L791.86 232.33L793.26 231.9L794.64 231.43L795.99 230.91L797.32 230.33L798.63 229.71L799.91 229.04L801.17 228.32L802.4 227.55L803.61 226.74L804.78 225.89L805.93 224.99L807.05 224.06L808.13 223.08L809.18 222.06L810.2 221L811.19 219.91L812.14 218.78L813.05 217.61L813.92 216.41L814.76 215.17L815.56 213.9L816.32 212.6L817.04 211.27L817.71 209.91L818.34 208.52L818.93 207.1L819.47 205.66L819.97 204.19L820.42 202.7L820.82 201.18L742.31 201.18L742.72 202.7ZM556.92 202.7L557.37 204.19L557.87 205.66L558.42 207.1L559.01 208.52L559.64 209.91L560.32 211.27L561.04 212.6L561.8 213.9L562.6 215.17L563.44 216.41L564.32 217.61L565.23 218.78L566.18 219.91L567.17 221L568.19 222.06L569.24 223.08L570.33 224.06L571.45 224.99L572.59 225.89L573.77 226.74L574.98 227.55L576.21 228.32L577.47 229.04L578.75 229.71L580.06 230.33L581.39 230.91L582.75 231.43L584.12 231.9L585.52 232.33L586.94 232.7L588.37 233.01L589.82 233.27L591.29 233.47L592.78 233.62L594.28 233.71L595.79 233.74L597.31 233.71L598.81 233.62L600.29 233.47L601.76 233.27L603.21 233.01L604.65 232.7L606.07 232.33L607.47 231.9L608.84 231.43L610.2 230.91L611.53 230.33L612.84 229.71L614.13 229.04L615.39 228.32L616.62 227.55L617.82 226.74L619 225.89L620.15 224.99L621.27 224.06L622.35 223.08L623.4 222.06L624.42 221L625.41 219.91L626.36 218.78L627.27 217.61L628.15 216.41L628.98 215.17L629.78 213.9L630.54 212.6L631.25 211.27L631.93 209.91L632.56 208.52L633.14 207.1L633.68 205.66L634.18 204.19L634.62 202.7L635.02 201.18L556.52 201.18L556.92 202.7ZM631.46 183.08L595.84 103.51L560.18 183.08L631.46 183.08ZM817.26 183.08L781.59 103.51L745.93 183.08L817.26 183.08ZM686.28 56.83L685.12 57.18L684 57.65L682.95 58.24L681.97 58.95L681.05 59.75L680.22 60.65L679.48 61.64L678.83 62.7L678.29 63.84L677.85 65.05L677.53 66.31L677.33 67.62L677.27 68.97L677.33 70.32L677.53 71.63L677.85 72.89L678.29 74.1L678.83 75.24L679.48 76.3L680.22 77.29L681.05 78.19L681.97 78.99L682.95 79.7L684 80.29L685.12 80.76L686.28 81.11L687.49 81.32L688.74 81.39L689.99 81.32L691.2 81.11L692.37 80.76L693.48 80.29L694.53 79.7L695.52 78.99L696.43 78.19L697.26 77.29L698 76.3L698.65 75.24L699.2 74.1L699.63 72.89L699.95 71.63L700.15 70.32L700.22 68.97L700.15 67.62L699.95 66.31L699.63 65.05L699.2 63.84L698.65 62.7L698 61.64L697.26 60.65L696.43 59.75L695.52 58.95L694.53 58.24L693.48 57.65L692.37 57.18L691.2 56.83L689.99 56.62L688.74 56.55L687.49 56.62L686.28 56.83Z"
      id="amFr0c3zx"></path>
  </defs>
  <g>
    <g>
      <g>
        <g>
          <g>
            <use xlink:href="#aeT0RmbE0" opacity="1" fill="#FFFDF7" fill-opacity="0.99"></use>
            <g>
              <use xlink:href="#aeT0RmbE0" opacity="1" fill-opacity="0" stroke="#FFFDF7" stroke-width="1" stroke-opacity="0"></use>
            </g>
          </g>
          <g>
            <use xlink:href="#f2vHzI1jRy" opacity="1" fill="#FFFDF7" fill-opacity="0.99"></use>
            <g>
              <use xlink:href="#f2vHzI1jRy" opacity="1" fill-opacity="0" stroke="#FFFDF7" stroke-width="1" stroke-opacity="0"></use>
            </g>
          </g>
          <g>
            <use xlink:href="#avNREPbPZ" opacity="1" fill="#FFFDF7" fill-opacity="0.99"></use>
            <g>
              <use xlink:href="#avNREPbPZ" opacity="1" fill-opacity="0" stroke="#FFFDF7" stroke-width="1" stroke-opacity="0"></use>
            </g>
          </g>
        </g>
        <g>
          <g>
            <use xlink:href="#b571cVPMot" opacity="1" fill="#FFFDF7" fill-opacity="0.99"></use>
            <g>
              <use xlink:href="#b571cVPMot" opacity="1" fill-opacity="0" stroke="#FFFDF7" stroke-width="1" stroke-opacity="0"></use>
            </g>
          </g>
          <g>
            <use xlink:href="#b34mcouix5" opacity="1" fill="#FFFDF7" fill-opacity="0.99"></use>
            <g>
              <use xlink:href="#b34mcouix5" opacity="1" fill-opacity="0" stroke="#FFFDF7" stroke-width="1" stroke-opacity="0"></use>
            </g>
          </g>
          <g>
            <use xlink:href="#a1Mv3Bm1h3" opacity="1" fill="#FFFDF7" fill-opacity="0.99"></use>
            <g>
              <use xlink:href="#a1Mv3Bm1h3" opacity="1" fill-opacity="0" stroke="#FFFDF7" stroke-width="1" stroke-opacity="0"></use>
            </g>
          </g>
        </g>
      </g>
      <g>
        <use xlink:href="#amFr0c3zx" opacity="1" fill="#FFFDF7" fill-opacity="0.99"></use>
        <g>
          <use xlink:href="#amFr0c3zx" opacity="1" fill-opacity="0" stroke="#FFFDF7" stroke-width="1" stroke-opacity="0"></use>
        </g>
      </g>
    </g>
  </g>
</svg>
